<?xml version="1.0" encoding="iso-8859-1"?>
<!-- Generator: Adobe Illustrator 19.0.0, SVG Export Plug-In . SVG Version: 6.00 Build 0)  -->
<svg version="1.1" id="Layer_1" xmlns="http://www.w3.org/2000/svg" xmlns:xlink="http://www.w3.org/1999/xlink" x="0px" y="0px"
	 viewBox="0 0 512 512" style="enable-background:new 0 0 512 512;" xml:space="preserve">
<path style="fill:#333E48;" d="M442.023,440.393c-1.843,18.707-18.73,34.013-37.526,34.013H174.316
	c-18.797,0-35.683-15.306-37.525-34.013L100.476,71.608c-1.842-18.707,12.031-34.013,30.829-34.013h316.206
	c18.797,0,32.671,15.306,30.827,34.013L442.023,440.393z"/>
<g>
	<path style="fill:#3E4A57;" d="M465.792,37.594c21.095,0,38.196,17.102,38.196,38.196c0,21.096-17.101,38.196-38.196,38.196
		H113.022c-21.095,0-38.196-17.1-38.196-38.196c0-21.094,17.101-38.196,38.196-38.196C113.022,37.594,465.792,37.594,465.792,37.594
		z"/>
	<path style="fill:#3E4A57;" d="M375.209,440.393c-1.843,18.707-18.73,34.013-37.526,34.013H107.502
		c-18.797,0-35.684-15.306-37.525-34.013L33.661,71.608C31.82,52.9,45.692,37.595,64.491,37.595h316.206
		c18.798,0,32.67,15.306,30.827,34.013L375.209,440.393z"/>
</g>
<path style="fill:#4C5B6B;" d="M398.978,37.594c21.095,0,38.196,17.102,38.196,38.196c0,21.096-17.101,38.196-38.196,38.196H46.207
	c-21.095,0-38.196-17.1-38.196-38.196c0-21.094,17.101-38.196,38.196-38.196C46.207,37.594,398.978,37.594,398.978,37.594z"/>
<g>
	<polygon style="fill:#8DCD6F;" points="280.492,233.492 246.998,175.477 246.998,175.48 198.307,175.481 198.307,175.48 
		169.289,225.742 191.126,222.964 200.019,244.174 222.894,204.555 249.824,251.199 234.009,260.329 279.079,266.068 
		296.646,224.165 	"/>
	<polygon style="fill:#8DCD6F;" points="152.506,254.828 119.011,312.846 119.015,312.842 143.361,355.009 143.361,355.011 
		201.396,355.011 188.071,337.488 201.995,319.18 156.245,319.18 183.176,272.536 198.99,281.666 181.424,239.765 136.353,245.502 	
		"/>
	<polygon style="fill:#8DCD6F;" points="234.842,354.784 301.833,354.784 301.828,354.782 326.172,312.614 326.174,312.614 
		297.156,262.354 288.644,282.655 265.827,279.75 288.701,319.371 234.842,319.371 234.842,301.108 207.337,337.272 
		234.842,373.436 	"/>
</g>
<path d="M465.792,29.582H46.207C20.729,29.582,0,50.311,0,75.79c0,19.89,12.633,36.884,30.295,43.383l31.709,322.005
	c2.238,22.74,22.648,41.24,45.498,41.24h296.995c22.849,0,43.26-18.499,45.499-41.239l31.709-322.006
	C499.367,112.674,512,95.68,512,75.79C512,50.311,491.27,29.582,465.792,29.582z M16.023,75.79
	c0-16.644,13.541-30.184,30.184-30.184h352.77c16.644,0,30.184,13.541,30.184,30.184s-13.541,30.184-30.184,30.184H46.207
	C29.564,105.974,16.023,92.433,16.023,75.79z M337.683,466.395H107.502c-14.59,0-28.124-12.266-29.552-26.786L46.674,121.997
	h351.837l-31.275,317.611C365.806,454.128,352.272,466.395,337.683,466.395z M434.05,439.608
	c-1.43,14.52-14.964,26.787-29.554,26.787h-32.482c6.123-6.978,10.232-15.724,11.167-25.216l31.43-319.181h50.714L434.05,439.608z
	 M465.792,105.974H433.92c7.011-8.103,11.265-18.653,11.265-30.184s-4.256-22.08-11.265-30.184h31.872
	c16.644,0,30.184,13.541,30.184,30.184S482.435,105.974,465.792,105.974z"/>
<g>
</g>
<g>
</g>
<g>
</g>
<g>
</g>
<g>
</g>
<g>
</g>
<g>
</g>
<g>
</g>
<g>
</g>
<g>
</g>
<g>
</g>
<g>
</g>
<g>
</g>
<g>
</g>
<g>
</g>
</svg>
